/* XPM */
static char * jcathy_16_xpm[] = {
"16 16 123 2",
"  	c None",
". 	c #100C00",
"+ 	c #E7E7E7",
"@ 	c #E6E6E6",
"# 	c #3F3200",
"$ 	c #E3E5E6",
"% 	c #85A8D3",
"& 	c #7FAEE5",
"* 	c #83ABDC",
"= 	c #BEC9DA",
"- 	c #B69200",
"; 	c #775F00",
"> 	c #EBEBEB",
", 	c #8BAAD2",
"' 	c #7CAFF1",
") 	c #68A1F2",
"! 	c #6CA3F2",
"~ 	c #73A0DC",
"{ 	c #DFDFDF",
"] 	c #DDB100",
"^ 	c #F5C400",
"/ 	c #4D3E00",
"( 	c #A9BFA9",
"_ 	c #6898B1",
": 	c #679FEC",
"< 	c #68A0F2",
"[ 	c #6B9FE8",
"} 	c #DDDDDD",
"| 	c #342900",
"1 	c #FAC800",
"2 	c #FFCC00",
"3 	c #C8A000",
"4 	c #2F9A2E",
"5 	c #45B642",
"6 	c #45B742",
"7 	c #32A135",
"8 	c #4C8FA6",
"9 	c #93B2E1",
"0 	c #473900",
"a 	c #547D14",
"b 	c #C1AE08",
"c 	c #876B01",
"d 	c #1E7322",
"e 	c #51BC4D",
"f 	c #75D46E",
"g 	c #7BD774",
"h 	c #6CCF65",
"i 	c #54C44C",
"j 	c #30AA2D",
"k 	c #7DA7AB",
"l 	c #D9DEE5",
"m 	c #5B4A00",
"n 	c #3F8418",
"o 	c #229D1E",
"p 	c #328C27",
"q 	c #62C75C",
"r 	c #8ADE84",
"s 	c #93DF8F",
"t 	c #479F49",
"u 	c #4F8E53",
"v 	c #679E6A",
"w 	c #29992B",
"x 	c #2A922B",
"y 	c #715A00",
"z 	c #6D8A10",
"A 	c #3CB833",
"B 	c #5EC957",
"C 	c #80D97A",
"D 	c #90DD8C",
"E 	c #2B7A2F",
"F 	c #D2F83F",
"G 	c #A3D949",
"H 	c #1D7723",
"I 	c #7E6500",
"J 	c #A89F0A",
"K 	c #40B439",
"L 	c #62CB5B",
"M 	c #77D571",
"N 	c #67C363",
"O 	c #246720",
"P 	c #D7F740",
"Q 	c #D4F917",
"R 	c #A5E309",
"S 	c #1B621F",
"T 	c #A28200",
"U 	c #D3B505",
"V 	c #32A22D",
"W 	c #4FC247",
"X 	c #54C24C",
"Y 	c #44B33F",
"Z 	c #2C972B",
"` 	c #518E20",
" .	c #AEE707",
"..	c #CDA300",
"+.	c #F7C801",
"@.	c #347816",
"#.	c #4E8415",
"$.	c #8B940D",
"%.	c #C2AF08",
"&.	c #CCED2A",
"*.	c #D5FA11",
"=.	c #A6E10A",
"-.	c #2C2300",
";.	c #EFBF00",
">.	c #F0CD04",
",.	c #CDF522",
"'.	c #B4E80A",
").	c #394F0A",
"!.	c #3C3000",
"~.	c #F2C200",
"{.	c #EEBE00",
"].	c #D7BA01",
"^.	c #CEB503",
"/.	c #584700",
"(.	c #231D00",
"_.	c #352B00",
":.	c #2B2200",
"<.	c #2C2200",
"[.	c #2A2200",
"}.	c #282000",
"|.	c #281E00",
"1.	c #201A00",
"2.	c #201900",
"                                ",
"    .                 + @ @     ",
"    #               $ % & * =   ",
"    - ;           > , ' ) ! ~ { ",
"    ] ^ /         ( _ : < < [ } ",
"  | 1 2 3       4 5 6 7 8 < 9 } ",
"  0 2 a b c d e f g h i j k l   ",
"  m 2 n o p q r s t u v w x     ",
"  y 2 z A B C D E   F G   H     ",
"  I 2 J K L M N O P Q R     S   ",
"  T 2 U V W X Y Z `  .          ",
"  ..2 +.@.#.$.%.&.*.=.          ",
"-.;.2 2 2 2 2 >.,.'.).          ",
"!.2 2 2 2 2 ~.{.].^./.          ",
"(.!._.| :.<.[.}.|.1.2.          ",
"                                "};
