/* XPM */
static char * jcathy_32_xpm[] = {
"32 32 360 2",
"  	c None",
". 	c #DEDEDE",
"+ 	c #E4E4E4",
"@ 	c #E6E6E6",
"# 	c #E0E0E0",
"$ 	c #000000",
"% 	c #E2E2E2",
"& 	c #ECECEC",
"* 	c #EFEFEF",
"= 	c #DFDFDF",
"- 	c #E8E8E8",
"; 	c #F2F2F2",
"> 	c #0B0800",
", 	c #211A00",
"' 	c #D5D6D7",
") 	c #9CAFC9",
"! 	c #6B98D2",
"~ 	c #6698D7",
"{ 	c #769CD0",
"] 	c #AEBACB",
"^ 	c #E7E7E7",
"/ 	c #312700",
"( 	c #BD9800",
"_ 	c #1B1500",
": 	c #F1F1F1",
"< 	c #CED0D3",
"[ 	c #6A99D5",
"} 	c #85B6EC",
"| 	c #9BC8F6",
"1 	c #95C3F4",
"2 	c #96C3F4",
"3 	c #76ABE6",
"4 	c #85A3CD",
"5 	c #E5E6E6",
"6 	c #594700",
"7 	c #FFCC00",
"8 	c #6C5600",
"9 	c #0F0B00",
"0 	c #789FCF",
"a 	c #91C0F2",
"b 	c #81B4F4",
"c 	c #6AA1F2",
"d 	c #68A0F2",
"e 	c #69A0F2",
"f 	c #78ACF3",
"g 	c #78ABE8",
"h 	c #96ADCD",
"i 	c #C9C9C9",
"j 	c #836800",
"k 	c #F9C700",
"l 	c #2A2100",
"m 	c #EBEBEB",
"n 	c #C8CDD3",
"o 	c #70A5E2",
"p 	c #80B2F4",
"q 	c #70A6F2",
"r 	c #6D9CD8",
"s 	c #E9E9E9",
"t 	c #D1D1D1",
"u 	c #130E00",
"v 	c #A78600",
"w 	c #D5AA00",
"x 	c #1B1600",
"y 	c #EEEEEE",
"z 	c #A2B4CE",
"A 	c #7CB0EC",
"B 	c #6A9CE3",
"C 	c #DFE1E3",
"D 	c #D5D5D5",
"E 	c #CAA200",
"F 	c #8E7200",
"G 	c #151200",
"H 	c #82A684",
"I 	c #608D75",
"J 	c #528D9F",
"K 	c #5F99DA",
"L 	c #74A3E6",
"M 	c #E5E6E8",
"N 	c #141000",
"O 	c #ECBD00",
"P 	c #FECB00",
"Q 	c #3E3200",
"R 	c #1A641D",
"S 	c #228126",
"T 	c #30A031",
"U 	c #39AE38",
"V 	c #3AAF39",
"W 	c #31A233",
"X 	c #24852A",
"Y 	c #357A64",
"Z 	c #609ADB",
"` 	c #94B1DD",
" .	c #CACACA",
"..	c #100D00",
"+.	c #E7B900",
"@.	c #1F1800",
"#.	c #207824",
"$.	c #3DAF3B",
"%.	c #56C54E",
"&.	c #5CC855",
"*.	c #5EC957",
"=.	c #5DC855",
"-.	c #58C651",
";.	c #4FC149",
">.	c #38B036",
",.	c #237930",
"'.	c #5591BE",
").	c #6FA3EE",
"!.	c #D6DDE8",
"~.	c #E3E3E3",
"{.	c #211B00",
"].	c #718310",
"^.	c #8C910D",
"/.	c #FBCA00",
"(.	c #AC8A00",
"_.	c #1A1400",
":.	c #18601C",
"<.	c #2D952E",
"[.	c #56C450",
"}.	c #65CC5E",
"|.	c #6DD066",
"1.	c #71D26A",
"2.	c #6CCF65",
"3.	c #63CB5C",
"4.	c #59C651",
"5.	c #4CC044",
"6.	c #38B333",
"7.	c #22792B",
"8.	c #5B96CC",
"9.	c #78A6E9",
"0.	c #CBD6E6",
"a.	c #C7C7C7",
"b.	c #443700",
"c.	c #6E8110",
"d.	c #1A791D",
"e.	c #406F17",
"f.	c #D7B805",
"g.	c #514903",
"h.	c #175B1B",
"i.	c #3BA739",
"j.	c #7CD775",
"k.	c #83DB7D",
"l.	c #84DB7E",
"m.	c #80D979",
"n.	c #76D470",
"o.	c #67CD61",
"p.	c #5BC753",
"q.	c #4CC145",
"r.	c #3CB934",
"s.	c #2AAB26",
"t.	c #347C3C",
"u.	c #E8EBED",
"v.	c #EDEDED",
"w.	c #6F5900",
"x.	c #95950C",
"y.	c #1E911E",
"z.	c #229E1E",
"A.	c #1C6D1C",
"B.	c #858E0E",
"C.	c #2B6B1A",
"D.	c #42AE3F",
"E.	c #68CE61",
"F.	c #78D571",
"G.	c #87DC81",
"H.	c #93E28D",
"I.	c #98E492",
"J.	c #86D982",
"K.	c #4DAD4F",
"L.	c #27802B",
"M.	c #237228",
"N.	c #2D7C32",
"O.	c #268629",
"P.	c #2CA52C",
"Q.	c #27AE1F",
"R.	c #249B26",
"S.	c #7EA080",
"T.	c #090700",
"U.	c #987A00",
"V.	c #BAA808",
"W.	c #1C801C",
"X.	c #27AF1E",
"Y.	c #31B02A",
"Z.	c #2E992D",
"`.	c #48B544",
" +	c #7AD673",
".+	c #8ADE84",
"++	c #9CE696",
"@+	c #A9EDA4",
"#+	c #6BC16B",
"$+	c #1E6F23",
"%+	c #B6BBB6",
"&+	c #5C8A5F",
"*+	c #238027",
"=+	c #26A824",
"-+	c #1E7624",
";+	c #191300",
">+	c #B99400",
",+	c #E2BC03",
"'+	c #186F1B",
")+	c #2EB225",
"!+	c #40BA37",
"~+	c #51C349",
"{+	c #74D36D",
"]+	c #85DC7F",
"^+	c #97E491",
"/+	c #A7ECA2",
"(+	c #59AF5B",
"_+	c #195F1D",
":+	c #B9F033",
"<+	c #AFEB60",
"[+	c #A6D59A",
"}+	c #1D7122",
"|+	c #218D28",
"1+	c #181300",
"2+	c #DDB100",
"3+	c #1D6119",
"4+	c #36B52F",
"5+	c #48BE40",
"6+	c #59C752",
"7+	c #6ACF63",
"8+	c #89DD83",
"9+	c #95E38F",
"0+	c #61B761",
"a+	c #175E1D",
"b+	c #CBF82C",
"c+	c #EEFF62",
"d+	c #E1FF1C",
"e+	c #A5E50B",
"f+	c #1D6F22",
"g+	c #1B6D21",
"h+	c #FAC800",
"i+	c #3E6B14",
"j+	c #36AD30",
"k+	c #4DC145",
"l+	c #6BCF64",
"m+	c #77D571",
"n+	c #81DA7B",
"o+	c #86DC80",
"p+	c #348D37",
"q+	c #103F13",
"r+	c #9AE823",
"s+	c #EDFF5C",
"t+	c #E7FF3B",
"u+	c #D6FC11",
"v+	c #A2DE04",
"w+	c #1B651E",
"x+	c #161200",
"y+	c #6B7E10",
"z+	c #30A12D",
"A+	c #65CC5D",
"B+	c #72D36C",
"C+	c #73D36C",
"D+	c #66C861",
"E+	c #2E8B31",
"F+	c #1B601B",
"G+	c #BCE432",
"H+	c #EBFF51",
"I+	c #E0FF15",
"J+	c #BAEF09",
"K+	c #9EDD06",
"L+	c #1A611E",
"M+	c #342900",
"N+	c #91920B",
"O+	c #289025",
"P+	c #47BE3F",
"Q+	c #52C34A",
"R+	c #60CA59",
"S+	c #5EC956",
"T+	c #50C249",
"U+	c #34A432",
"V+	c #216D20",
"W+	c #91BD1D",
"X+	c #CFF90F",
"Y+	c #A0DC03",
"Z+	c #82D014",
"`+	c #5C4900",
" @	c #B9A607",
".@	c #1D7E1E",
"+@	c #3EBA36",
"@@	c #46BD3E",
"#@	c #4AC042",
"$@	c #4BC044",
"%@	c #43B43D",
"&@	c #37A534",
"*@	c #2A942A",
"=@	c #208022",
"-@	c #1C6E1E",
";@	c #35791F",
">@	c #6EA018",
",@	c #B1EA07",
"'@	c #9CDB06",
")@	c #020200",
"!@	c #866C00",
"~@	c #E0BB03",
"{@	c #156618",
"]@	c #259421",
"^@	c #218421",
"/@	c #1B721E",
"(@	c #1F6419",
"_@	c #497114",
":@	c #7A870F",
"<@	c #A59E0A",
"[@	c #96C616",
"}@	c #E4FB3F",
"|@	c #E0FF14",
"1@	c #A1DE04",
"2@	c #69BE19",
"3@	c #A98700",
"4@	c #FDCB00",
"5@	c #74810E",
"6@	c #888C0C",
"7@	c #B4A408",
"8@	c #E1BC03",
"9@	c #E0CE09",
"0@	c #D4F92E",
"a@	c #E5FF30",
"b@	c #C0F30B",
"c@	c #9BDB07",
"d@	c #191500",
"e@	c #CDA400",
"f@	c #C8D00B",
"g@	c #E5FF40",
"h@	c #E5FF2F",
"i@	c #DBFD12",
"j@	c #A8E305",
"k@	c #4E8F13",
"l@	c #EEBE00",
"m@	c #F7CC01",
"n@	c #87DA09",
"o@	c #CDF813",
"p@	c #BDEF0A",
"q@	c #9AD409",
"r@	c #1B1901",
"s@	c #FDCC00",
"t@	c #C4CA06",
"u@	c #BBCC0B",
"v@	c #EBC703",
"w@	c #866B00",
"x@	c #161100",
"y@	c #241D00",
"z@	c #F1C100",
"A@	c #E6B800",
"B@	c #DAAE00",
"C@	c #CCA300",
"D@	c #BD9700",
"E@	c #BB9600",
"F@	c #AF8C00",
"G@	c #282000",
"H@	c #272000",
"I@	c #1C1700",
"J@	c #120F00",
"K@	c #0A0800",
"L@	c #030200",
"M@	c #070500",
"N@	c #070600",
"O@	c #0C0A00",
"P@	c #0F0D00",
"Q@	c #110D00",
"R@	c #090800",
"S@	c #050500",
"                                                                ",
"                                                                ",
"                                              . + @ #           ",
"        $                                 % & * % = - ; #       ",
"        > ,                             @ ; ' ) ! ~ { ] @ ^     ",
"        / ( _                           : < [ } | 1 2 3 4 5 .   ",
"      $ 6 7 8 9                       - @ 0 a b c d e f g h * i ",
"      $ j 7 k l                       m n o p d d d d d q r s t ",
"      u v 7 7 w x                     y z A d d d d d d d B C D ",
"      _ E 7 7 7 F G                   H I J K d d d d d d L M t ",
"      N O 7 7 7 P Q             R S T U V W X Y Z d d d d ` :  .",
"      ..7 7 7 7 7 +.@.        #.$.%.&.*.=.-.;.>.,.'.d d ).!.~.  ",
"      {.7 7 ].^./.7 (._.  :.<.[.}.|.1.1.2.3.4.5.6.7.8.9.0.* a.  ",
"    $ b.7 7 c.d.e.f.7 g.h.i.3.1.j.k.l.m.n.o.p.q.r.s.t.u.v. .    ",
"    $ w.7 7 x.y.z.A.B.C.D.E.F.G.H.I.J.K.L.M.N.O.P.Q.R.S.a.      ",
"    T.U.7 7 V.W.X.Y.Z.`.E. +.+++@+#+$+    + - %+&+*+=+-+        ",
"    ;+>+7 7 ,+'+)+!+~+3.{+]+^+/+(+_+    :+<+[+      }+|+        ",
"    1+2+7 7 P 3+4+5+6+7+ +8+9+0+a+    b+c+d+e+        f+g+      ",
"    ..h+7 7 7 i+j+k+&.l+m+n+o+p+q+  r+s+t+u+v+          w+      ",
"    x+7 7 7 7 y+z+q.6+A+|.B+C+D+E+F+G+H+I+J+K+            L+    ",
"    M+7 7 7 7 N+O+P+Q+6+*.R+S+4.T+U+V+W+X+Y+Z+            L+    ",
"  $ `+7 7 7 7  @.@+@@@#@$@%@&@*@=@-@;@>@,@'@                    ",
"  )@!@7 7 7 7 ~@{@]@^@/@(@_@:@<@[@}@|@X+1@2@                    ",
"  N 3@7 7 7 7 4@5@6@7@8@7 7 7 9@0@a@|@b@c@                      ",
"  d@e@7 7 7 7 7 7 7 7 7 7 7 7 f@g@h@i@j@k@                      ",
"  N l@7 7 7 7 7 7 7 7 7 7 7 7 m@n@o@p@q@r@                      ",
"  ..7 7 7 7 7 7 7 7 7 7 7 7 7 7 s@t@u@v@w@x@                    ",
"  y@7 7 7 7 7 7 7 7 7 z@l@A@2+B@C@C@D@E@F@$                     ",
"  $ G@H@I@1+J@K@T.$ $ $ $ L@M@N@O@O@P@..Q@R@S@                  ",
"      $   $ $ $ $   $                                           ",
"                                                                ",
"                                                                "};
